<?xml version="1.0" standalone="no"?>
<!DOCTYPE svg PUBLIC "-//W3C//DTD SVG 20010904//EN"
 "http://www.w3.org/TR/2001/REC-SVG-20010904/DTD/svg10.dtd">
<svg version="1.0" xmlns="http://www.w3.org/2000/svg"
 width="208.000000pt" height="208.000000pt" viewBox="0 0 208.000000 208.000000"
 preserveAspectRatio="xMidYMid meet">
<metadata>
Created by potrace 1.11, written by Peter Selinger 2001-2013
</metadata>
<g transform="translate(0.000000,208.000000) scale(0.100000,-0.100000)"
fill="#000000" stroke="none">
<path d="M79 2070 c0 -5 -1 -37 -1 -70 0 -33 1 -70 1 -83 l1 -22 243 0 c133 1
248 -1 255 -3 9 -3 12 -163 12 -753 l0 -749 110 0 110 0 2 752 3 753 250 -1
c138 0 252 4 255 8 3 4 6 44 5 90 l0 83 -622 3 c-413 1 -623 -1 -624 -8z"/>
<path d="M840 1560 l0 -310 388 -1 c367 -1 383 -1 317 -15 -376 -80 -578 -464
-449 -852 62 -187 199 -312 397 -363 53 -13 99 -17 191 -14 67 1 135 6 151 9
65 15 111 28 141 43 l32 14 -15 62 c-8 34 -15 70 -16 79 -2 22 -2 22 -70 -1
-248 -86 -476 -13 -572 182 -42 87 -54 146 -51 252 6 221 131 381 327 420 80
17 223 5 301 -25 28 -11 52 -19 53 -17 3 5 45 153 45 159 0 10 -100 45 -155
54 -28 4 -53 9 -57 10 -5 1 -28 2 -53 3 l-45 1 0 310 0 310 -430 0 -430 0 0
-310z"/>
</g>
</svg>
